<svg width="43" height="43" viewBox="0 0 43 43" fill="none" xmlns="http://www.w3.org/2000/svg">
<path d="M21.4882 41.6521C29.6413 41.6536 36.9922 36.7426 40.1122 29.21C43.2316 21.677 41.5061 13.0068 35.7392 7.2434C27.8683 -0.627522 15.1076 -0.627522 7.23695 7.2434C-0.633671 15.1137 -0.633671 27.8745 7.23695 35.7454C11.0083 39.5381 16.1397 41.665 21.4882 41.6521Z" fill="#634343"/>
<path d="M20.6258 30.8324C20.9905 31.1974 21.5822 31.1974 21.9475 30.8324C22.3125 30.4677 22.3125 29.8757 21.9475 29.5107L14.8688 22.432H33.6766C34.1943 22.432 34.6143 22.0121 34.6143 21.4944C34.6143 20.9764 34.1943 20.5568 33.6766 20.5568H14.8782L21.9569 13.4781C22.1325 13.3031 22.2312 13.065 22.2312 12.8171C22.2312 12.569 22.1325 12.3314 21.9569 12.1561C21.7813 11.9791 21.5408 11.881 21.2912 11.8842C21.0425 11.8854 20.8037 11.9829 20.6258 12.1561L11.9532 20.8284C11.7767 21.0052 11.6784 21.2451 11.681 21.4944C11.6828 21.7431 11.7803 21.981 11.9532 22.1598L20.6258 30.8324Z" fill="white"/>
</svg>
